{"title":"Lost S01E23 - AVM","uid":5044075,"size":144392464,"categoryP":"video","categoryS":"tv_shows","magnet":"?xt=urn:btih:2a9d91da2caea275a849ed3a48ec50e180bd7cc9&amp;dn=Lost+S01E23+-+AVM&amp;tr=udp%3A%2F%2Ftracker.openbittorrent.com%3A80&amp;tr=udp%3A%2F%2Fopen.demonii.com%3A1337&amp;tr=udp%3A%2F%2Ftracker.coppersurfer.tk%3A6969&amp;tr=udp%3A%2F%2Fexodus.desync.com%3A6969","seeders":1,"leechers":1,"uploader":"SysProfile","files":1,"time":1249536171,"description":"AVIDMobile - http://www.avidmobile.com.ar (Mobile media)\n\nVideo\nID                               : 1\nFormat                           : MPEG-4 Visual\nFormat profile                   : Simple@L1\nFormat settings, BVOP            : No\nFormat settings, QPel            : No\nFormat settings, GMC             : No warppoints\nFormat settings, Matrix          : Default (H.263)\nCodec ID                         : 20\nDuration                         : 43mn 19s\nBit rate mode                    : Variable\nBit rate                         : 379 Kbps\nMaximum bit rate                 : 2 215 Kbps\nWidth                            : 320 pixels\nHeight                           : 240 pixels\nDisplay aspect ratio             : 4/3\nFrame rate mode                  : Variable\nFrame rate                       : 23.976 fps\nMinimum frame rate               : 23.974 fps\nMaximum frame rate               : 23.981 fps\nResolution                       : 24 bits\nColorimetry                      : 4:2:0\nScan type                        : Progressive\nBits/(Pixel*Frame)               : 0.206\nStream size                      : 117 MiB (85%)\n\nAudio\nID                               : 2\nFormat                           : AAC\nFormat/Info                      : Advanced Audio Codec\nFormat version                   : Version 4\nFormat profile                   : LC\nFormat settings, SBR             : No\nCodec ID                         : 40\nDuration                         : 43mn 19s\nBit rate mode                    : Variable\nBit rate                         : 63.2 Kbps\nMaximum bit rate                 : 119 Kbps\nChannel(s)                       : 2 channels\nChannel positions                : L R\nSampling rate                    : 22.05 KHz\nResolution                       : 16 bits\nStream size                      : 19.6 MiB (14%)\n","torrent":{"xt":"urn:btih:2a9d91da2caea275a849ed3a48ec50e180bd7cc9","amp;dn":"Lost+S01E23+-+AVM","amp;tr":["udp%3A%2F%2Ftracker.openbittorrent.com%3A80","udp%3A%2F%2Fopen.demonii.com%3A1337","udp%3A%2F%2Ftracker.coppersurfer.tk%3A6969","udp%3A%2F%2Fexodus.desync.com%3A6969"],"infoHash":"2a9d91da2caea275a849ed3a48ec50e180bd7cc9","infoHashBuffer":{"type":"Buffer","data":[42,157,145,218,44,174,162,117,168,73,237,58,72,236,80,225,128,189,124,201]},"announce":[],"urlList":[]}}